<svg width="93px" height="93px" viewBox="0 0 93 93" version="1.1" xmlns="http://www.w3.org/2000/svg" xmlns:xlink="http://www.w3.org/1999/xlink">
  <!-- Generator: Sketch 48.2 (47327) - http://www.bohemiancoding.com/sketch -->
  <desc>Created with Sketch.</desc>
  <defs>
    <circle id="path-1" cx="37.5" cy="37.5" r="37.5"></circle>
    <filter x="-18.0%" y="-18.0%" width="136.0%" height="136.0%" filterUnits="objectBoundingBox" id="filter-2">
      <feMorphology radius="1.5" operator="dilate" in="SourceAlpha" result="shadowSpreadOuter1"></feMorphology>
      <feOffset dx="0" dy="0" in="shadowSpreadOuter1" result="shadowOffsetOuter1"></feOffset>
      <feGaussianBlur stdDeviation="3" in="shadowOffsetOuter1" result="shadowBlurOuter1"></feGaussianBlur>
      <feColorMatrix values="0 0 0 0 0   0 0 0 0 0   0 0 0 0 0  0 0 0 0.09 0" type="matrix" in="shadowBlurOuter1"></feColorMatrix>
    </filter>
  </defs>
  <g id="Page-1" stroke="none" stroke-width="1" fill="none" fill-rule="evenodd">
    <g id="Home" transform="translate(-275.000000, -170.000000)">
      <g id="AddDrinkButton" transform="translate(284.000000, 179.000000)">
        <g id="Oval">
          <use fill="black" fill-opacity="1" filter="url(#filter-2)" xlink:href="#path-1"></use>
          <use fill="#69E3BF" fill-rule="evenodd" xlink:href="#path-1"></use>
        </g>
        <path d="M50.18,36.41 L39.47,36.41 L39.47,25.7 C39.47,24.747728 38.722272,24 37.77,24 C36.817728,24 36.07,24.747728 36.07,25.7 L36.07,36.41 L25.7,36.41 C24.747728,36.41 24,37.157728 24,38.11 C24,39.062272 24.747728,39.81 25.7,39.81 L36.07,39.81 L36.07,50.18 C36.07,51.132272 36.817728,51.88 37.77,51.88 C38.722272,51.88 39.47,51.132272 39.47,50.18 L39.47,39.81 L50.18,39.81 C51.132272,39.81 51.88,39.062272 51.88,38.11 C51.88,37.157728 51.132272,36.41 50.18,36.41 Z" id="Page-1" fill="#48116D"></path>
      </g>
    </g>
  </g>
</svg>
