
<svg width="35px" height="35px" viewBox="0 0 35 35" version="1.1" xmlns="http://www.w3.org/2000/svg" xmlns:xlink="http://www.w3.org/1999/xlink">
  <!-- Generator: Sketch 50.2 (55047) - http://www.bohemiancoding.com/sketch -->
  <desc>Created with Sketch.</desc>
  <defs></defs>
  <g id="Page-1" stroke="none" stroke-width="1" fill="none" fill-rule="evenodd">
    <g id="Menu" transform="translate(-100.000000, -82.000000)" fill="#FFFFFF" fill-rule="nonzero">
      <g id="DiaryMenuItem" transform="translate(100.000000, 82.000000)">
        <g id="Group-2">
          <path d="M32.6888993,3.01571137 L31.2490242,3.01571137 L31.2490242,9.99141599 L32.6888993,9.99141599 C33.9072551,9.99141599 34.7933321,8.96218667 34.7933321,7.81859854 L34.7933321,5.18834584 C34.7933321,4.04475771 33.7964955,3.01552839 32.6888993,3.01552839 L32.6888993,3.01571137 Z" id="Shape"></path>
          <path d="M32.6888993,12.0502406 L31.2490242,12.0502406 L31.2490242,19.0259452 L32.6888993,19.0259452 C33.9072551,19.0259452 34.7933321,17.9967159 34.7933321,16.8531277 L34.7933321,14.1085162 C34.7933321,13.0792869 33.7964955,12.0500576 32.6888993,12.0500576 L32.6888993,12.0502406 Z" id="Shape"></path>
          <path d="M32.6888993,21.0844038 L31.2490242,21.0844038 L31.2490242,28.0601084 L32.6888993,28.0601084 C33.9072551,28.0601084 34.7933321,27.0308791 34.7933321,25.887291 L34.7933321,23.3713971 C34.7933321,22.1134502 33.7964955,21.0842208 32.6888993,21.0842208 L32.6888993,21.0844038 Z" id="Shape"></path>
          <path d="M26.7078796,0.156741043 L7.43570512,0.156741043 C5.99583001,0.156741043 4.77747415,1.41468799 4.77747415,2.90135256 L6.32810888,2.90135256 C6.881907,2.90135256 7.21418587,3.35878781 7.21418587,3.81622306 C7.21418587,4.38801712 6.77114738,4.73109356 6.32810888,4.73109356 L4.77747415,4.73109356 L4.77747415,9.6487055 L6.32810888,9.6487055 C6.881907,9.6487055 7.21418587,10.1061407 7.21418587,10.563576 C7.21418587,11.1353701 6.77114738,11.4784465 6.32810888,11.4784465 L4.77747415,11.4784465 L4.77747415,16.3960584 L6.32810888,16.3960584 C6.881907,16.3960584 7.21418587,16.8534937 7.21418587,17.3109289 C7.21418587,17.882723 6.77114738,18.2257994 6.32810888,18.2257994 L4.77747415,18.2257994 L4.77747415,23.1434114 L6.32810888,23.1434114 C6.881907,23.1434114 7.21418587,23.6008466 7.21418587,24.0582819 C7.21418587,24.5157171 6.77114738,24.9731524 6.32810888,24.9731524 L4.77747415,24.9731524 L4.77747415,29.8907643 L6.32810888,29.8907643 C6.881907,29.8907643 7.21418587,30.3481996 7.21418587,30.8056348 C7.21418587,31.3774289 6.77114738,31.7205053 6.32810888,31.7205053 L4.77747415,31.7205053 C4.77747415,33.2071699 5.99583001,34.4651168 7.43570512,34.4651168 L26.7078796,34.4651168 C28.1477547,34.4651168 29.3661106,33.2071699 29.3661106,31.7205053 L29.3661106,3.01626029 C29.3661106,1.41523691 28.1477547,0.157289966 26.7078796,0.157289966 L26.7078796,0.156741043 Z" id="Shape"></path>
          <path d="M1.34392583,3.01571137 C0.900887331,3.01571137 0.457848837,3.47314662 0.457848837,3.93058187 C0.457848837,4.50237594 0.900887331,4.84545238 1.34392583,4.84545238 L4.77747415,4.84545238 L4.77747415,3.01571137 L1.34392583,3.01571137 Z" id="Shape"></path>
          <path d="M1.34392583,9.87724015 C0.790127708,9.87724015 0.457848837,10.3346754 0.457848837,10.7921107 C0.457848837,11.3639047 0.900887331,11.7069812 1.34392583,11.7069812 L4.77747415,11.7069812 L4.77747415,9.87724015 L1.34392583,9.87724015 Z" id="Shape"></path>
          <path d="M1.34392583,16.7387689 C0.790127708,16.7387689 0.457848837,17.1962042 0.457848837,17.6536394 C0.457848837,18.2254335 0.900887331,18.5685099 1.34392583,18.5685099 L4.77747415,18.5685099 L4.77747415,16.6244101 L1.34392583,16.6244101 L1.34392583,16.7387689 Z" id="Shape"></path>
          <path d="M1.34392583,23.6002977 C0.790127708,23.6002977 0.457848837,24.057733 0.457848837,24.5151682 C0.457848837,24.9726035 0.900887331,25.4300387 1.34392583,25.4300387 L4.77747415,25.4300387 L4.77747415,23.4859389 L1.34392583,23.4859389 L1.34392583,23.6002977 Z" id="Shape"></path>
          <path d="M1.34392583,30.4618265 C0.790127708,30.4618265 0.457848837,30.9192617 0.457848837,31.376697 C0.457848837,31.9484911 0.900887331,32.2915675 1.34392583,32.2915675 L4.77747415,32.2915675 L4.77747415,30.3474677 L1.34392583,30.3474677 L1.34392583,30.4618265 Z" id="Shape"></path>
        </g>
      </g>
    </g>
  </g>
</svg>
