<svg width="17px" height="17px" viewBox="0 0 17 17" version="1.1" xmlns="http://www.w3.org/2000/svg" xmlns:xlink="http://www.w3.org/1999/xlink">
  <!-- Generator: Sketch 48.2 (47327) - http://www.bohemiancoding.com/sketch -->
  <desc>Created with Sketch.</desc>
  <defs></defs>
  <g id="Symbols" stroke="none" stroke-width="1" fill="none" fill-rule="evenodd">
    <g id="ConsumptionListItem" transform="translate(-282.000000, -22.000000)" fill="#69E3BF">
      <g id="Clock" transform="translate(282.000000, 22.000000)">
        <path d="M8.5,16.8910256 C10.6573436,16.8910256 12.7933718,16.0626462 14.4279872,14.4279872 C17.6972179,11.1587564 17.6972179,5.84124359 14.4279872,2.57201282 C11.1587564,-0.697217949 5.84124359,-0.697217949 2.57201282,2.57201282 C-0.697217731,5.84124359 -0.697217731,11.1587564 2.57201282,14.4279872 C4.20662821,16.0626026 6.34274359,16.8910256 8.5,16.8910256 Z M3.33483333,3.33483333 C4.7515,1.91816667 6.62629487,1.19876154 8.5,1.19876154 C10.3747077,1.19876154 12.2485,1.91816667 13.6651667,3.33483333 C16.5207308,6.19039744 16.5207308,10.8106923 13.6651667,13.6651667 C10.8096026,16.5207308 6.18930769,16.5207308 3.33483333,13.6651667 C0.479269231,10.8104744 0.479269231,6.18930769 3.33483333,3.33483333 Z" id="Circle"></path>
        <path d="M5.55769231,12.3141026 C5.71008641,12.3141026 5.8412,12.2485479 5.95017436,12.1395736 L8.78350769,9.06606077 C8.87034718,8.95708641 8.93590179,8.82596846 8.93590179,8.69572231 L8.93590179,4.57692744 C8.93590179,4.27214795 8.69580949,4.03205564 8.39103,4.03205564 C8.08625051,4.03205564 7.84615821,4.27214795 7.84615821,4.57692744 L7.84615821,8.50000436 L5.14403,11.3989403 C4.94821615,11.616889 4.94821615,11.9659556 5.16616487,12.1617608 C5.27428705,12.2707351 5.42667897,12.3141549 5.55779692,12.3141549 L5.55769231,12.3141026 Z" id="Arms"></path>
      </g>
    </g>
  </g>
</svg>
