<svg width="23px" height="24px" viewBox="0 0 23 24" version="1.1" xmlns="http://www.w3.org/2000/svg" xmlns:xlink="http://www.w3.org/1999/xlink">
  <!-- Generator: Sketch 50.2 (55047) - http://www.bohemiancoding.com/sketch -->
  <desc>Created with Sketch.</desc>
  <defs></defs>
  <g id="Page-1" stroke="none" stroke-width="1" fill="none" fill-rule="evenodd">
    <g id="Menu" transform="translate(-334.000000, -20.000000)" fill="#FFFFFF">
      <path d="M347.607206,31.620112 L356.567206,22.660112 C357.07143,22.100112 357.07143,21.231664 356.538769,20.72856 C356.258769,20.44856 355.894545,20.30856 355.502993,20.30856 C355.138769,20.30856 354.802993,20.4769968 354.551441,20.72856 L345.618881,29.66 L336.407441,20.42 C336.127441,20.14 335.763217,20 335.371665,20 C335.007441,20 334.671665,20.1684368 334.420113,20.42 C334.168549,20.7 334.000112,21.064224 334.02856,21.428448 C334.02856,21.792672 334.196997,22.128448 334.448561,22.38 L343.660001,31.62 L334.420001,40.86 C334.14,41.14 334,41.504224 334,41.895776 C334,42.26 334.168437,42.595776 334.420001,42.8473288 C334.615782,43.0157656 334.924225,43.2388808 335.400001,43.2388808 C335.904225,43.2388808 336.211553,43.0146624 336.408449,42.8473288 L345.648449,33.607328 L354.579049,42.539888 C354.77483,42.7356696 355.083273,42.9314408 355.587497,42.9314408 C356.091721,42.9314408 356.399049,42.7072216 356.595945,42.539888 C356.875945,42.259888 357.015945,41.895664 357.015945,41.504112 C356.987508,41.139888 356.847508,40.804112 356.567497,40.551468 L347.607206,31.620112 Z" id="CloseButton"></path>
    </g>
  </g>
</svg>
