
<svg width="42px" height="48px" viewBox="0 0 42 48" version="1.1" xmlns="http://www.w3.org/2000/svg" xmlns:xlink="http://www.w3.org/1999/xlink">
  <!-- Generator: Sketch 48.2 (47327) - http://www.bohemiancoding.com/sketch -->
  <desc>Created with Sketch.</desc>
  <defs></defs>
  <g id="Page-1" stroke="none" stroke-width="1" fill="none" fill-rule="evenodd">
    <g id="Home" transform="translate(-146.000000, -958.000000)" fill="#9D6666" fill-rule="nonzero">
      <g id="np_delete_900292_000000" transform="translate(146.000000, 958.000000)">
        <path d="M4,13 L4,42.0677966 C4,45.3305085 6.68458731,48 9.96574958,48 L32.0342504,48 C35.3154127,48 38,45.3305085 38,42.0677966 L38,13 L4,13 Z M14.1370017,42.6562712 L11.1541269,42.6562712 L11.1541269,18.3342373 L14.1370017,18.3342373 L14.1370017,42.6562712 Z M22.4890511,42.6562712 L19.5061763,42.6562712 L19.5061763,18.3342373 L22.4890511,18.3342373 L22.4890511,42.6562712 Z M30.8411005,42.6562712 L27.8582257,42.6562712 L27.8582257,18.3342373 L30.8411005,18.3342373 L30.8411005,42.6562712 Z" id="Shape"></path>
        <polygon id="Shape" points="25.4347532 4.11764706 25.4347532 0 16.5605139 0 16.5605139 4.11764706 0 4.11764706 0 10 42 10 42 4.11764706"></polygon>
      </g>
    </g>
  </g>
</svg>
