<svg width="32px" height="21px" viewBox="0 0 32 21" version="1.1" xmlns="http://www.w3.org/2000/svg" xmlns:xlink="http://www.w3.org/1999/xlink">
  <!-- Generator: Sketch 48.2 (47327) - http://www.bohemiancoding.com/sketch -->
  <desc>Created with Sketch.</desc>
  <defs></defs>
  <g id="Page-1" stroke="none" stroke-width="1" fill="none" fill-rule="evenodd">
    <g id="Home" transform="translate(-28.000000, -828.000000)" fill="#FFFFFF">
      <g id="ConsumptionList" transform="translate(7.000000, 276.000000)">
        <path d="M37.833457,556.133856 C38.659697,554.895104 39.757201,553.807616 41.100977,552.967616 C41.542225,552.692614 42.123473,552.826365 42.398481,553.267616 L52.872081,570.028896 C53.147089,570.468896 53.013329,571.050144 52.572081,571.325152 C47.503281,574.49264 40.825841,572.951392 37.658481,567.882592 C37.285969,567.285088 36.978481,566.666336 36.733489,566.033856 L36.052241,572.162496 C35.9997418,572.64 35.597233,573 35.117233,573 L23.8234733,573 C23.3434733,573 22.940977,572.64 22.887217,572.162496 L21.0059691,555.221376 C20.9434699,554.663872 21.379729,554.176384 21.940977,554.176384 L36.999857,554.176384 C37.561105,554.176384 37.997361,554.663872 37.934865,555.221376 L37.833457,556.133856 Z M32.764657,564.530016 C33.284657,564.530016 33.705905,564.108768 33.705905,563.588768 C33.705905,563.068768 33.284657,562.64752 32.764657,562.64752 C32.244657,562.64752 31.823409,563.068768 31.823409,563.588768 C31.823409,564.108768 32.244657,564.530016 32.764657,564.530016 Z M26.175857,565.471264 C26.695857,565.471264 27.117105,565.048768 27.117105,564.530016 C27.117105,564.010016 26.695857,563.588768 26.175857,563.588768 C25.655857,563.588768 25.234609,564.010016 25.234609,564.530016 C25.234609,565.048768 25.655857,565.471264 26.175857,565.471264 Z M30.410737,570.176224 C30.930737,570.176224 31.351985,569.754976 31.351985,569.234976 C31.351985,568.716224 30.930737,568.293728 30.410737,568.293728 C29.891985,568.293728 29.469489,568.716224 29.469489,569.234976 C29.469489,569.754976 29.891985,570.176224 30.410737,570.176224 Z M42.600817,557.142624 L41.327057,555.103872 C37.763217,557.88512 36.805777,562.966272 39.254545,566.884992 C41.703281,570.802432 46.689425,572.170112 50.750865,570.186112 L49.523377,568.22112 C46.559633,569.57488 42.979697,568.553632 41.207217,565.716128 C39.433457,562.878624 40.084721,559.212448 42.600977,557.142368 L42.600817,557.142624 Z M23.413298,559.846368 C25.525809,559.223872 27.777137,559.266368 29.890737,560.393856 L29.9132394,560.405107 C31.6169834,561.313843 33.4569194,561.313843 35.1957994,560.757619 C35.2782986,560.73137 35.3582986,560.703869 35.4345482,560.676368 L35.9483082,556.058768 L22.9921472,556.058768 L23.413298,559.846368 Z" id="Page-1"></path>
      </g>
    </g>
  </g>
</svg>
