<svg width="12px" height="37px" viewBox="0 0 12 37" version="1.1" xmlns="http://www.w3.org/2000/svg" xmlns:xlink="http://www.w3.org/1999/xlink">
  <!-- Generator: Sketch 48.2 (47327) - http://www.bohemiancoding.com/sketch -->
  <desc>Created with Sketch.</desc>
  <defs></defs>
  <g id="Page-1" stroke="none" stroke-width="1" fill="none" fill-rule="evenodd">
    <g id="Home" transform="translate(-29.000000, -556.000000)" fill="#FFFFFF">
      <g id="ConsumptionList" transform="translate(7.000000, 276.000000)">
        <path d="M22.311372,309.896566 L33.1433744,309.896566 L33.0774284,312.529775 C33.0636244,313.107966 32.980812,313.71678 32.8289833,314.239771 C32.5728707,315.13079 32.2063493,316.178264 31.1036758,316.178264 L24.3496729,316.178264 C23.2485306,316.178264 22.8835247,315.13079 22.6258966,314.239771 C22.4740679,313.710656 22.3897205,313.054297 22.3759164,312.479168 L22.311372,309.896566 Z M33.4499998,297.564808 C33.4499998,297.5096 33.4361958,296.225943 32.9515864,295.403943 C32.6249263,294.851861 32.1172984,294.407077 31.747699,294.117255 C31.4793174,293.907148 31.3060171,293.608084 31.2600037,293.263023 L30.053054,284.664164 C30.2984328,284.530741 30.405787,284.279226 30.405787,283.980166 L30.405787,283.572209 C30.405787,283.213343 30.2217529,282.964886 29.8920227,282.872899 L29.9058267,282.414335 L30.1358703,282.414335 C30.2570246,282.414335 30.3965843,282.329987 30.4717331,282.233367 C30.5453467,282.138282 30.5468818,281.960384 30.5162075,281.843827 C30.5162075,281.843827 30.2999679,281.087746 30.2938315,281.070864 C30.117465,280.638369 29.70186,280.451292 29.2356402,280.451292 L26.142336,280.451292 C25.6761162,280.451292 25.2605034,280.63226 25.0856759,281.064739 C25.0795395,281.080075 24.8632999,281.842296 24.8632999,281.842296 C24.8326256,281.960384 24.8295593,282.172022 24.9047081,282.267096 C24.9783217,282.362181 25.1194165,282.414323 25.2421059,282.414323 L25.5518957,282.414323 L25.5365565,282.852942 C25.163887,282.915822 24.9092898,283.184204 24.9092898,283.572197 L24.9092898,283.980154 C24.9092898,284.282276 25.0534508,284.542994 25.3049582,284.673339 L24.1731533,293.275339 C24.1286789,293.618869 23.9492461,293.925573 23.6823957,294.137227 C23.3173937,294.42708 22.8128517,294.888715 22.4907576,295.437735 C22.0076558,296.259774 22,297.488199 22,297.552586 L22.0153352,298.118489 L33.4346764,298.118489 L33.4499998,297.564808 Z M22.2913491,309.111354 L33.1630047,309.111354 L33.4145161,298.903595 L22.0352207,298.903595 L22.2913491,309.111354 Z" id="Page-1"></path>
      </g>
    </g>
  </g>
</svg>
