<svg width="13px" height="42px" viewBox="0 0 13 42" version="1.1" xmlns="http://www.w3.org/2000/svg" xmlns:xlink="http://www.w3.org/1999/xlink">
  <!-- Generator: Sketch 48.2 (47327) - http://www.bohemiancoding.com/sketch -->
  <desc>Created with Sketch.</desc>
  <defs></defs>
  <g id="Page-1" stroke="none" stroke-width="1" fill="none" fill-rule="evenodd">
    <g id="Home" transform="translate(-36.000000, -947.000000)" fill="#FFFFFF" fill-rule="nonzero">
      <path d="M44.2525958,975.661293 L44.2525958,985.608973 L47.1480062,985.608973 C47.8840373,985.608973 48.4815415,986.20395 48.4815415,986.939948 L48.4815415,986.991239 C48.4815415,987.72727 47.8839979,988.324775 47.1480062,988.324775 L37.8515999,988.324775 C37.1155688,988.324775 36.5180646,987.727231 36.5180646,986.991239 L36.5180646,986.939948 C36.5180646,986.203917 37.1156081,985.608973 37.8515999,985.608973 L40.7470103,985.608973 L40.7470103,975.661293 C38.1209068,974.543164 36.1641315,970.606569 36,962.100095 C36,958.014731 36.8001737,951.385593 37.5977214,947 L47.4022786,947 C48.1998263,951.385396 49,958.014534 49,962.100095 L48.9974356,962.100095 C48.8358712,970.606701 46.8790892,974.54323 44.2529858,975.661293 L44.2525958,975.661293 Z M39.090136,967.180292 C39.090136,966.83408 38.8080334,966.551977 38.461821,966.551977 C38.1156086,966.551977 37.8335061,966.83408 37.8335061,967.180292 C37.8335061,967.526504 38.1156086,967.80604 38.461821,967.80604 C38.8080334,967.80604 39.090136,967.526504 39.090136,967.180292 Z M40.3980668,963.720729 C40.3980668,963.089847 39.887723,962.57949 39.2568279,962.57949 C38.6259459,962.57949 38.115589,963.089834 38.115589,963.720729 C38.115589,964.351611 38.6259328,964.861968 39.2568279,964.861968 C39.8877098,964.861968 40.3980668,964.349057 40.3980668,963.720729 Z M41.9752389,966.362195 C41.9752389,965.921089 41.618765,965.564648 41.1776913,965.564648 C40.7366175,965.564648 40.3801436,965.921121 40.3801436,966.362195 C40.3801436,966.803269 40.7391845,967.159743 41.1776913,967.159743 C41.6187979,967.162307 41.9752389,966.803269 41.9752389,966.362195 Z M47.378775,960.512418 C47.232593,956.95024 46.660667,952.182418 46.0657233,948.587283 L38.9338828,948.587283 C38.3389062,952.182812 37.7670394,956.950109 37.6208311,960.512418 L47.378775,960.512418 Z" id="Shape"></path>
    </g>
  </g>
</svg>
