<svg width="23px" height="38px" viewBox="0 0 23 38" version="1.1" xmlns="http://www.w3.org/2000/svg" xmlns:xlink="http://www.w3.org/1999/xlink">
  <!-- Generator: Sketch 48.2 (47327) - http://www.bohemiancoding.com/sketch -->
  <desc>Created with Sketch.</desc>
  <defs></defs>
  <g id="Page-1" stroke="none" stroke-width="1" fill="none" fill-rule="evenodd">
    <g id="Home" transform="translate(-27.000000, -487.000000)" fill="#FFFFFF">
      <g id="ConsumptionList" transform="translate(7.000000, 276.000000)">
        <path d="M30.5338117,221.404763 L33.1826672,211.804417 C33.3135814,211.328775 33.7455951,211 34.2372493,211 L42.451595,211 C42.7556103,211 43,211.247283 43,211.552762 L43,212.637916 C43,212.947748 42.7556252,213.190678 42.4545368,213.190678 L35.072462,213.190678 L32.8061904,221.405024 L35.3328678,221.405024 C35.9569034,221.405024 36.455819,221.925761 36.4267361,222.548344 L35.3328678,247.19101 C35.3066857,247.777211 34.8237489,248.23833 34.2375473,248.23833 L22.1902872,248.23833 C21.6040855,248.23833 21.1225973,247.777211 21.0964189,247.19101 L20.0010984,222.548344 C19.9734603,221.925761 20.4709311,221.405024 21.0949667,221.405024 L30.5338117,221.404763 Z M27.6667783,232.356479 C28.2718969,232.356479 28.7620988,231.866277 28.7620988,231.261159 C28.7620988,230.657492 28.2718969,230.165838 27.6667783,230.165838 C27.0616597,230.165838 26.5714577,230.657492 26.5714577,231.261159 C26.5714577,231.866277 27.0616597,232.356479 27.6667783,232.356479 Z M31.4996927,236.737911 C32.1048113,236.737911 32.5950133,236.247709 32.5950133,235.64259 C32.5950133,235.037471 32.1048113,234.547269 31.4996927,234.547269 C30.8945741,234.547269 30.4043722,235.037471 30.4043722,235.64259 C30.4043722,236.247709 30.8945741,236.737911 31.4996927,236.737911 Z M25.4760627,240.570825 C26.0811813,240.570825 26.5713833,240.080623 26.5713833,239.475504 C26.5713833,238.871838 26.0811813,238.381636 25.4760627,238.381636 C24.8709441,238.381636 24.3807421,238.871838 24.3807421,239.475504 C24.3807421,240.080623 24.8709441,240.570825 25.4760627,240.570825 Z M30.4041487,245.500401 C31.0092673,245.500401 31.4994693,245.010199 31.4994693,244.40508 C31.4994693,243.799961 31.0092673,243.309759 30.4041487,243.309759 C29.7990301,243.309759 29.3088282,243.799961 29.3088282,244.40508 C29.3088282,245.010199 29.7990301,245.500401 30.4041487,245.500401 Z M32.2005876,223.595479 L31.294362,226.881441 L34.0421219,226.881441 L34.1875812,223.595479 L32.2005876,223.595479 Z M29.9284696,223.595479 L22.2395532,223.595479 L22.3864685,226.881441 L29.0222924,226.881441 L29.9284696,223.595479 Z M27.6665549,215.381133 C26.7588769,215.381133 26.0228293,214.645086 26.0228293,213.737408 C26.0228293,212.831182 26.7588769,212.095134 27.6665549,212.095134 C28.5727805,212.095134 29.3088282,212.831182 29.3088282,213.737408 C29.3088282,214.645086 28.5727805,215.381133 27.6665549,215.381133 Z M23.2851237,218.667095 C22.6800051,218.667095 22.1898031,218.175441 22.1898031,217.571774 C22.1898031,216.966656 22.6800051,216.476454 23.2851237,216.476454 C23.8902423,216.476454 24.3804442,216.966656 24.3804442,217.571774 C24.3804442,218.175441 23.8902423,218.667095 23.2851237,218.667095 Z" id="Page-1"></path>
      </g>
    </g>
  </g>
</svg>
