<svg width="19px" height="28px" viewBox="0 0 19 28" version="1.1" xmlns="http://www.w3.org/2000/svg" xmlns:xlink="http://www.w3.org/1999/xlink">
  <!-- Generator: Sketch 48.2 (47327) - http://www.bohemiancoding.com/sketch -->
  <desc>Created with Sketch.</desc>
  <defs></defs>
  <g id="Page-1" stroke="none" stroke-width="1" fill="none" fill-rule="evenodd">
    <g id="Home" transform="translate(-26.000000, -692.000000)" fill="#FFFFFF">
      <g id="ConsumptionList" transform="translate(7.000000, 276.000000)">
        <path d="M38,427.73812 L36.431998,416.730258 L20.568011,416.730258 L19.0047138,427.674485 L19,427.738101 C19,432.82494 23.0183218,436.98953 28.0475573,437.226275 L28.0475573,442.364986 L23.9761565,442.364986 C23.7264077,442.364986 23.5237786,442.567615 23.5237786,442.817364 C23.5237786,443.067113 23.7264077,443.269742 23.9761565,443.269742 L33.0237138,443.269742 C33.2734626,443.269742 33.4760917,443.067113 33.4760917,442.817364 C33.4760917,442.567615 33.2734626,442.364986 33.0237138,442.364986 L28.952313,442.364986 L28.952313,437.226275 C33.9815485,436.989482 37.9998703,432.82494 37.9998703,427.738101 L38,427.73812 Z M21.3527962,417.635014 L35.6473335,417.635014 L36.9962338,427.072521 C36.5120387,426.9877 35.7451376,427.053672 34.5517346,427.203285 C34.2148036,427.245697 33.8967217,427.285751 33.7777463,427.285751 C33.1250857,427.285751 32.6043987,427.49427 32.1013545,427.69455 C31.6583861,427.87126 31.2401779,428.039714 30.7618938,428.039714 C29.9466788,428.039714 28.6696462,427.850044 27.435107,427.667437 C26.1686903,427.480125 24.8574881,427.285751 23.9762259,427.285751 C23.5803952,427.285751 23.198709,427.363502 22.7957911,427.444789 C21.9723126,427.612075 21.1193993,427.780544 19.9672532,427.33405 L21.3527962,417.635014 Z" id="Page-1"></path>
      </g>
    </g>
  </g>
</svg>
