<svg width="21px" height="25px" viewBox="0 0 21 25" version="1.1" xmlns="http://www.w3.org/2000/svg" xmlns:xlink="http://www.w3.org/1999/xlink">
  <!-- Generator: Sketch 48.2 (47327) - http://www.bohemiancoding.com/sketch -->
  <desc>Created with Sketch.</desc>
  <defs></defs>
  <g id="Page-1" stroke="none" stroke-width="1" fill="none" fill-rule="evenodd">
    <g id="Home" transform="translate(-27.000000, -360.000000)" fill="#FFFFFF">
      <g id="ConsumptionList" transform="translate(7.000000, 276.000000)">
        <g id="Group-3" transform="translate(20.000000, 84.000000)">
          <path d="M19.4923727,7.7969491 L15.6644251,7.7969491 C15.6256601,7.7969491 15.5938202,7.76510919 15.5938202,7.72634418 L15.5938202,4.7844844 C15.5938202,4.68619323 15.514908,4.60728101 15.4166168,4.60728101 L5.74095741,4.60728101 C5.7021924,4.60728101 5.67035249,4.63912092 5.67035249,4.67788593 L5.67035249,11.9889433 C5.67035249,12.5648543 5.23981914,13.081225 4.66390813,13.1103218 C4.0506072,13.1435475 3.54391183,12.6562559 3.54391183,12.0498659 L3.54391183,4.67785049 C3.54391183,4.63908548 3.51207193,4.60724557 3.47330691,4.60724557 L0.177040361,4.60724557 C0.0787491859,4.60724557 -0.000163027117,4.68615779 -0.000163027117,4.78444896 L-0.000163027117,22.3275844 C-0.000163027117,23.5015569 0.952305186,24.4540251 2.12627764,24.4540251 L13.4672945,24.4540251 C14.641267,24.4540251 15.5937352,23.5015569 15.5937352,22.3275844 L15.5937352,19.562928 C15.5937352,19.524163 15.6255751,19.4923231 15.6643401,19.4923231 L19.4922877,19.4923231 C20.2758456,19.4923231 20.9099148,18.858254 20.9099148,18.074696 L20.9099148,9.21452659 C20.9099148,8.43096864 20.2758456,7.79689948 19.4922877,7.79689948 L19.4923727,7.7969491 Z M18.7835592,17.0115253 C18.7835592,17.2067255 18.6243526,17.3659321 18.4291524,17.3659321 L15.664496,17.3659321 C15.625731,17.3659321 15.5938911,17.3340922 15.5938911,17.2953272 L15.5938911,9.99383874 C15.5938911,9.95507372 15.625731,9.92323382 15.664496,9.92323382 L18.4291524,9.92323382 C18.6243526,9.92323382 18.7835592,10.0824404 18.7835592,10.2776406 L18.7835592,17.0115253 Z" id="Fill-1"></path>
          <path d="M0.177203389,3.18966099 C0.078912213,3.18966099 0,3.11074878 0,3.01245761 L0,2.48084744 C0,1.24733465 0.830658604,0.449919403 1.76235858,0.362699896 C2.63731803,0.281019766 3.40840086,0.779411384 3.73374628,1.51728629 C3.7960439,1.65849613 3.99539771,1.67233926 4.05769534,1.52974724 C4.35672605,0.838937546 5.04617128,0.354392601 5.84773309,0.354392601 C6.64929489,0.354392601 7.3387224,0.838937546 7.63777084,1.53112942 C7.69591481,1.66679988 7.89665435,1.66679988 7.95618406,1.53112942 C8.25521478,0.838937546 8.94466,0.354392601 9.74622181,0.354392601 C10.5477836,0.354392601 11.2372111,0.838937546 11.5362596,1.53112942 C11.5985572,1.67372145 11.797911,1.65987832 11.8602086,1.51866848 C12.1855434,0.780793571 12.9552547,0.28239132 13.8315963,0.364082082 C14.7660607,0.449915859 15.5939549,1.25148121 15.5939549,2.48084744 L15.5939549,3.01245761 C15.5939549,3.11074878 15.5150427,3.18966099 15.4167515,3.18966099 L0.177203389,3.18966099 Z" id="Fill-2"></path>
        </g>
      </g>
    </g>
  </g>
</svg>
