<svg width="21px" height="21px" viewBox="0 0 21 21" version="1.1" xmlns="http://www.w3.org/2000/svg" xmlns:xlink="http://www.w3.org/1999/xlink">
  <!-- Generator: Sketch 48.2 (47327) - http://www.bohemiancoding.com/sketch -->
  <desc>Created with Sketch.</desc>
  <defs></defs>
  <g id="Page-1" stroke="none" stroke-width="1" fill="none" fill-rule="evenodd">
    <g id="Home" transform="translate(-24.000000, -629.000000)" fill="#FFFFFF">
      <g id="ConsumptionList" transform="translate(7.000000, 276.000000)">
        <path d="M37.6600585,353.381443 C37.8023294,353.381443 37.9200001,353.496617 37.9200001,353.657006 C37.683755,358.760516 36.7370435,363.841967 35.3644254,368.761142 C34.9859116,370.117644 34.5599825,371.451039 34.1340309,372.807563 C33.9680478,373.359542 33.4481378,373.727251 32.8562211,373.727251 L28.7383442,373.750287 L26.1827695,373.750287 L22.0410612,373.727251 C21.4728635,373.727251 20.9520586,373.359542 20.7632514,372.830583 C19.3905883,368.738952 18.4201347,364.532001 17.7341966,360.301245 C17.5445013,359.152054 17.3319639,358.002077 17.1896953,356.82967 C17.0474244,354.645603 17.0948465,355.588333 17,353.657749 C17,353.519539 17.1185587,353.382185 17.2599415,353.382185 C22.1824643,353.405221 27.1285929,353.405221 32.0508902,353.405221 L37.6600585,353.381443 Z M21.4727286,359.037085 L21.3541699,359.037085 C21.3067455,359.037085 21.2356112,359.06012 21.1881868,359.106191 L21.1170502,359.175297 C21.093338,359.198332 21.093338,359.221368 21.0696258,359.244403 L19.602132,363.01454 C19.602132,363.037575 19.5784198,363.06061 19.5784198,363.106681 L19.5784198,363.221856 C19.5784198,363.267926 19.602132,363.33703 19.6495563,363.360066 L19.7206929,363.429172 C19.7444051,363.452207 19.7681173,363.452207 19.7918295,363.475243 L23.8622685,364.946933 C23.8859807,364.946933 23.9096929,364.969968 23.9571173,364.969968 L24.075676,364.969968 C24.1231003,364.969968 24.1942347,364.946933 24.2179468,364.900862 L24.2890834,364.831756 C24.3127956,364.80872 24.3127956,364.785685 24.3365078,364.76265 L25.1646696,362.670728 C25.1883818,362.601622 25.1883818,362.532518 25.1409574,362.463412 C24.4550643,361.176014 24.1231116,360.279345 24.0519548,360.026867 C24.0282426,359.980796 24.0045304,359.957761 23.9808182,359.934725 L21.5428264,359.061099 C21.5199933,359.060245 21.4962811,359.037209 21.4725689,359.037209 L21.4727286,359.037085 Z M30.0160416,357.037309 C29.7561001,357.335915 29.6849433,357.703624 29.5901125,358.072186 C29.5664003,358.141292 29.5901125,358.233431 29.6375369,358.301687 C30.3945643,359.221376 30.7967745,360.301463 31.2464226,361.382314 C31.3886935,361.750024 31.4826677,362.048629 31.0330151,362.348087 C30.8196076,362.486297 30.867032,362.807942 31.1041517,362.900066 C31.9560324,363.17563 31.6012151,363.061312 32.9264628,363.566381 C32.950175,363.566381 32.9738872,363.589417 32.9975994,363.589417 C33.1872947,363.612452 33.4709664,363.589417 33.6834925,363.566381 C33.7546291,363.566381 33.8020512,363.520311 33.8494756,363.47424 L33.9443244,363.359065 C33.9680366,363.33603 33.9917488,363.312995 33.9917488,363.266924 L35.4355462,358.852706 C35.5066828,358.64539 35.3881218,358.438934 35.1756046,358.36983 L30.4192275,356.921182 C30.2295323,356.875965 30.1583867,356.875965 30.016118,357.037211 L30.0160416,357.037309 Z M28.4071559,358.072186 C28.3123071,358.026115 28.1937484,358.026115 28.0997765,358.072186 L25.3070124,359.520834 L25.3307246,359.543869 C25.3307246,359.543869 25.7329573,359.72815 26.324874,360.026745 C26.9167907,360.32535 26.6796688,360.785206 26.6796688,360.785206 L26.2537397,362.348168 C26.2300275,362.417274 26.2537397,362.486378 26.2774518,362.532448 C26.4671471,362.877116 26.5848313,363.198764 26.8456496,363.475179 C26.893074,363.52125 26.9642083,363.544285 27.0353449,363.544285 L27.1776158,363.544285 C27.2250402,363.544285 27.2487523,363.52125 27.2961745,363.52125 C27.7695415,363.245686 27.6746882,363.291748 28.0057641,363.107478 C28.1717472,363.015337 28.1717472,362.762811 28.0057641,362.670665 C28.0057641,362.670665 27.4612628,362.50942 27.579835,361.866142 C27.6983937,361.222017 28.1480327,359.383513 28.5739843,358.142089 L28.4071559,358.072186 Z M29.4952592,359.796397 C29.4004105,359.612117 29.1167455,359.635152 29.0218922,359.819433 C28.8084848,360.348392 28.4536945,361.014707 28.4062566,361.382395 C28.3825444,361.54364 28.4062566,361.681001 28.4299688,361.84225 C28.4299688,361.911356 28.453681,361.957425 28.5011054,362.003496 C28.6670884,362.141706 28.8559002,362.210812 29.0456067,362.256018 C29.2353019,362.302088 29.4478393,362.302088 29.6375234,362.209947 C29.8737685,362.094772 30.1345868,362.071737 30.3234165,361.911341 C30.3708409,361.888306 30.4419752,361.86527 30.4656874,361.773131 C30.4893996,361.657957 30.4656874,361.543629 30.418263,361.451484 L29.4952592,359.796397 Z M37.0691311,354.370301 C37.0691311,354.209056 36.9505724,354.094737 36.8091895,354.094737 C29.5903148,354.117772 33.1874993,354.094737 25.6855711,354.094737 C20.549691,354.094737 22.9876828,354.094737 18.1125979,354.071702 C17.970327,354.071702 17.8526564,354.186876 17.8526564,354.347266 C17.9475051,356.669584 18.254889,358.967878 18.6808188,361.244113 C18.704531,361.382323 18.8468019,361.473615 18.9881982,361.451429 L19.2016057,361.405358 L19.2253179,361.405358 C19.8883689,360.002772 20.2906016,359.036956 20.5505431,358.57721 C20.8104847,358.094334 21.354986,358.232542 21.354986,358.232542 C22.3965507,358.531148 23.5795073,358.853647 24.3602087,359.083127 C24.4313453,359.106162 24.5261918,359.083127 24.5964538,359.060092 C25.7794104,358.301631 27.5306322,357.266776 28.2646827,357.197672 C28.5246242,357.174637 28.6669153,357.197672 28.7617461,357.220707 C28.8803048,357.266778 28.9979912,357.197672 29.0691255,357.105533 C29.1639743,356.944287 29.2588208,356.737823 29.352786,356.553553 C29.5187691,356.185844 30.0623756,356.139782 30.1809478,356.139782 L30.2283722,356.139782 L30.6780202,356.185853 L30.7254446,356.185853 L35.4582152,357.634501 C36.2152427,357.864003 36.4286456,357.864003 36.3575113,358.692419 C36.3100869,359.175295 36.1441038,359.543004 35.5293495,361.474484 C35.5056373,361.566625 35.5767739,361.635729 35.6716204,361.635729 L35.9552809,361.635729 C36.3100757,361.566623 36.2863792,361.360166 36.4049289,361.08375 C36.4523533,360.94554 36.6183364,359.796352 36.6885894,359.290434 C37.0925757,356.600537 37.0688568,354.370386 37.0688568,354.370386 L37.0691311,354.370301 Z M25.3546751,360.830335 C25.4732338,361.059837 25.8280421,360.99158 25.8517386,360.738193 C25.8517386,360.669087 25.7331799,360.623019 25.7094677,360.576948 C25.6857555,360.553913 25.6620433,360.553913 25.6383311,360.530877 C25.4258027,360.462625 25.2360984,360.669941 25.3546706,360.830335 L25.3546751,360.830335 Z" id="Page-1"></path>
      </g>
    </g>
  </g>
</svg>
