<svg width="18px" height="25px" viewBox="0 0 18 25" version="1.1" xmlns="http://www.w3.org/2000/svg" xmlns:xlink="http://www.w3.org/1999/xlink">
  <!-- Generator: Sketch 48.2 (47327) - http://www.bohemiancoding.com/sketch -->
  <desc>Created with Sketch.</desc>
  <defs></defs>
  <g id="Page-1" stroke="none" stroke-width="1" fill="none" fill-rule="evenodd">
    <g id="Home" transform="translate(-25.000000, -295.000000)" fill="#FFFFFF">
      <g id="ConsumptionList" transform="translate(7.000000, 276.000000)">
        <path d="M35.5699997,25.1987522 L35.5699997,25.1160476 C35.5699997,25.0612687 35.5699997,25.0064897 35.542074,24.9785641 C35.4593694,23.300825 35.1016868,20.5510444 34.5249159,19.3136926 C34.4422113,19.1214301 34.2499488,19.0107888 34.0297552,19.0107888 L19.5123189,19.011864 C19.2921307,19.011864 19.0998683,19.1214218 19.0171582,19.3147677 C18.4124506,20.5521195 18.0547734,23.4112271 18,25.0610295 L18,25.1158084 L18,25.6657425 C18,30.3682293 21.657337,34.2444401 26.249012,34.5194072 L26.249012,42.6309351 L23.0868908,42.6309351 C22.783987,42.6309351 22.5369566,42.8779765 22.5369566,43.1808693 C22.5369566,43.483762 22.783998,43.7308034 23.0868908,43.7308034 L30.482955,43.7308034 C30.7858587,43.7308034 31.0328891,43.483762 31.0328891,43.1808693 C31.0328891,42.8779765 30.7858477,42.6309351 30.482955,42.6309351 L27.3208337,42.6309351 L27.3208337,34.5194072 C31.9125087,34.2444401 35.5698457,30.3668545 35.5698457,25.6657425 L35.5698457,25.1985185 L35.5699997,25.1987522 Z M33.6731669,20.0838148 C34.0576808,21.1557464 34.3326479,23.1084526 34.4432946,24.566053 L19.0998573,24.566053 C19.2094152,23.1085076 19.4843712,21.1559114 19.8689127,20.0838148 L33.6731669,20.0838148 Z" id="Page-1"></path>
      </g>
    </g>
  </g>
</svg>
