<svg width="14px" height="40px" viewBox="0 0 14 40" version="1.1" xmlns="http://www.w3.org/2000/svg" xmlns:xlink="http://www.w3.org/1999/xlink">
  <!-- Generator: Sketch 48.2 (47327) - http://www.bohemiancoding.com/sketch -->
  <desc>Created with Sketch.</desc>
  <defs></defs>
  <g id="Page-1" stroke="none" stroke-width="1" fill="none" fill-rule="evenodd">
    <g id="Home" transform="translate(-33.000000, -951.000000)" fill="#FFFFFF" fill-rule="nonzero">
      <g id="np_champagne-glass_1113284_000000" transform="translate(33.000000, 951.000000)">
        <path d="M10.4395,4.64421053 C10.392625,4.11378947 10.347705,3.61010526 10.30669,3.13926316 L9.33404,3.23588947 C9.3770085,3.70669474 9.41998,4.21041579 9.46685,4.73878421 L10.4395,4.64421053 Z" id="Shape"></path>
        <path d="M7.4725,23.6636842 C8.96665,23.5876158 10.3514,23.1455895 11.41195,22.4013684 C12.785,21.4371579 13.51155,20.0555789 13.51155,18.4067368 C13.51155,15.6004211 12.22445,1.57515789 12.16975,0.978842105 L12.126781,0.514205263 L1.870781,0.514205263 L1.827812,0.978842105 C1.773122,1.57505263 0.486012,15.6004211 0.486012,18.4067368 C0.486012,20.0555789 1.212562,21.4371579 2.585612,22.4013684 C3.638362,23.1394211 5.011412,23.5794211 6.493812,23.6616316 L6.493812,38.4579474 L0.974312,38.4579474 L0.974312,39.4858947 L12.989812,39.4858947 L12.989812,38.4579474 L7.470312,38.4579474 L7.4725,23.6636842 Z M2.75765,1.54210526 L11.24015,1.54210526 C11.343665,2.68315789 11.62101,5.767 11.8925,9.01947368 C11.49992,9.04003263 11.14835,9.08320526 10.82415,9.14283158 C10.71868,7.88051579 10.615165,6.67572632 10.527275,5.6642 L9.554625,5.75877368 C9.667905,7.05193158 9.76947,8.26698421 9.86322,9.39361579 C9.26362,9.59715263 8.76752,9.85825263 8.27922,10.1131947 C7.30072,10.6271737 6.37492,11.1123526 4.57022,11.1123526 C3.65227,11.1123526 2.77922,10.9499368 1.97062,10.6271526 C2.281165,6.83194211 2.63857,2.87031053 2.75772,1.54188947 L2.75765,1.54210526 Z M1.4647,18.4068421 C1.4647,17.3644737 1.654155,14.6588947 1.88853,11.6857895 C2.73423,11.9859526 3.63463,12.1422053 4.57408,12.1422053 C6.60728,12.1422053 7.67953,11.5788895 8.71863,11.0340474 C9.11902,10.8243421 9.50963,10.6208053 9.95498,10.4501526 C10.296775,14.6483632 10.48623,17.4648895 10.48623,18.4064684 C10.48623,18.8094263 10.396385,19.2843632 9.73428,19.7489947 C9.47842,19.9278579 9.17373,20.08 8.82413,20.1992421 L9.126865,21.1758211 C9.558505,21.0277947 9.945215,20.8345368 10.273365,20.6042947 C11.072215,20.0430316 11.460865,19.3255053 11.460865,18.4065053 C11.460865,17.2099789 11.191335,13.6120842 10.910065,10.1744 C11.228425,10.1106684 11.579965,10.0654368 11.978415,10.0469316 C12.271385,13.6201421 12.535065,17.1769316 12.535065,18.4064053 C12.535065,21.3217211 9.665915,22.6477737 7.000065,22.6477737 C3.197315,22.6477737 1.465065,20.4499842 1.465065,18.4064053 L1.4647,18.4068421 Z" id="Shape"></path>
        <polygon id="Shape" points="8.4865 16.9263158 9.46305 16.9263158 9.46305 18.0385789 8.4865 18.0385789"></polygon>
        <polygon id="Shape" points="4.3575 15.1684211 5.33405 15.1684211 5.33405 16.2806842 4.3575 16.2806842"></polygon>
        <polygon id="Shape" points="7.3185 12.7673684 8.29505 12.7673684 8.29505 13.8796316 7.3185 13.8796316"></polygon>
      </g>
    </g>
  </g>
</svg>
