
<svg width="53px" height="51px" viewBox="0 0 53 51" version="1.1" xmlns="http://www.w3.org/2000/svg" xmlns:xlink="http://www.w3.org/1999/xlink">
  <!-- Generator: Sketch 48.2 (47327) - http://www.bohemiancoding.com/sketch -->
  <desc>Created with Sketch.</desc>
  <defs></defs>
  <g id="Page-1" stroke="none" stroke-width="1" fill="none" fill-rule="evenodd">
    <g id="Home" transform="translate(-227.000000, -963.000000)" fill="#ffffff" fill-rule="nonzero">
      <g id="np_edit_834259_000000" transform="translate(227.000000, 963.000000)">
        <path d="M1.77635684e-15,10.1209051 C0.00215656566,8.73183653 1.13873955,7.60390321 2.54061765,7.60176635 L29.7649126,7.60176635 L27.4572328,12.6421259 L2.54078329,12.6421259 C1.13890518,12.6399858 0.00231888781,11.5120558 0.000165634843,10.1208503 L1.77635684e-15,10.1209051 Z M3.55271368e-15,41.0845543 C0.00215656566,42.4757597 1.13873955,43.6015562 2.54061765,43.6058299 L16.1883766,43.6058299 C16.2185708,41.9150257 16.3867961,40.2284405 16.6908907,38.5633334 L2.54070599,38.5633334 C1.13882789,38.5676137 0.00224159155,39.6934036 8.83385832e-05,41.084609 L3.55271368e-15,41.0845543 Z M2.54061765,22.9475442 L22.7491728,22.9475442 L25.0568526,17.9071846 L2.54100413,17.9071846 C1.13697278,17.9071846 0.000386481301,19.0351179 0.000386481301,20.4284602 C0.000386481301,21.8196656 1.13697278,22.947599 2.54100413,22.947599 L2.54061765,22.9475442 Z M1.47113294e-15,30.7295499 C0.00215656566,32.1186185 1.13873955,33.2465518 2.54061765,33.2486887 L18.1423157,33.2486887 C18.4183737,32.4953086 18.7267858,31.7526127 19.0653987,31.0185191 L20.3507803,28.2083291 L2.54061765,28.2083291 C1.13873955,28.2104692 0.00215325297,29.3383993 0,30.7296047 L1.47113294e-15,30.7295499 Z M50.0051593,13.1579859 L47.1949985,11.9080871 L48.2992308,9.51310542 C49.103664,7.91643268 49.2180073,6.06081634 48.6162669,4.37855962 C48.0145707,2.69416603 46.7485684,1.32652085 45.109446,0.588098744 C43.4703236,-0.15032336 41.5983186,-0.195252211 39.9268974,0.463963616 C38.2533229,1.12315753 36.9226126,2.43086105 36.2410804,4.08320173 L23.0830485,32.8272561 C20.6783066,38.083822 19.9968296,43.9586529 21.1355692,49.6196881 C21.2412497,50.1611794 21.6057292,50.6191907 22.1125387,50.8460813 C22.617206,51.0750925 23.2038515,51.0472695 23.6847999,50.7711707 C28.7293194,47.8924916 32.736744,43.5157092 35.1412099,38.256842 L45.2736454,16.1326703 L48.0665801,17.3868975 C48.2779357,17.4810728 48.3706746,17.7250638 48.2779357,17.9348103 L42.8387083,29.8239706 C42.569121,30.3889783 42.5389257,31.0374879 42.7545989,31.6239738 C42.970272,32.2104596 43.4166966,32.6855548 43.9904004,32.9445532 C44.5619511,33.2013874 45.2154357,33.220652 45.8042124,32.9959201 C46.3908358,32.7711881 46.8631712,32.3217133 47.1111817,31.7481582 L52.5504092,19.858998 C53.7020682,17.3099432 52.5655057,14.315764 50.005485,13.1580242 L50.0051593,13.1579859 Z" id="Shape"></path>
      </g>
    </g>
  </g>
</svg>
