
<svg width="375px" height="226px" viewBox="0 0 375 226" version="1.1" xmlns="http://www.w3.org/2000/svg" xmlns:xlink="http://www.w3.org/1999/xlink">
  <!-- Generator: Sketch 49 (51002) - http://www.bohemiancoding.com/sketch -->
  <desc>Created with Sketch.</desc>
  <defs>
    <linearGradient x1="50%" y1="-2.48949813e-15%" x2="50%" y2="97.4310427%" id="linearGradient-1">
      <stop stop-color="#00C6F1" offset="0%"></stop>
      <stop stop-color="#7A3FE5" stop-opacity="0" offset="100%"></stop>
    </linearGradient>
  </defs>
  <g id="Page-1" stroke="none" stroke-width="1" fill="none" fill-rule="evenodd">
    <g id="Welcome" transform="translate(0.000000, -260.000000)">
      <g id="Group-2" transform="translate(-49.000000, 260.000000)">
        <path d="M481,222.717162 C481,227.104391 473.286508,230.693769 463.858908,230.693769 L438.015854,230.693769 L403.73367,230.693769 L377.891568,230.693769 L343.609384,230.693769 L317.76633,230.693769 L283.484146,230.693769 L257.641092,230.693769 L223.358908,230.693769 L197.516807,230.693769 L163.234622,230.693769 L137.391568,230.693769 L103.109384,230.693769 L77.2663304,230.693769 L42.9841458,230.693769 L17.1410923,230.693769 C7.71444382,230.693769 0,227.104391 0,222.717162 L0,206.763001 L0,190.80884 L0,174.855627 L0,158.901466 L0,142.947305 L0,126.993144 L0,111.03993 C0,106.652702 6.15936583,98.4420464 13.6871622,92.7945557 L21.6796726,86.7993085 C29.2065167,81.1518179 42.9270088,78.0504359 52.1679621,79.9067168 L103.448397,90.2114921 C112.68935,92.067773 125.170922,87.6767542 131.185541,80.4525145 L140.87121,68.8183048 C146.885829,61.5950127 159.348355,57.2959078 168.566454,59.264949 L223.741725,71.0545595 C232.958872,73.0245482 244.761466,68.2383947 249.970453,60.4181363 L262.588202,41.4753535 C267.795285,33.6550951 279.14364,30.2864996 287.806558,33.9886381 L345.000669,58.4291962 C353.662634,62.1313348 367.787847,62.019522 376.389818,58.180934 L383.331961,55.0833423 C391.934884,51.2447542 405.370644,52.3913085 413.190791,57.6303984 L466.781464,93.5364996 C474.601611,98.7755894 481,106.652702 481,111.03993 L481,126.993144 L481,142.947305 L481,158.901466 L481,174.855627 L481,190.80884 L481,206.763001 L481,222.717162 Z" id="Fill-1" fill="url(#linearGradient-1)"></path>
        <g id="First" transform="translate(102.000000, 15.000000)">
          <g id="Clock" transform="translate(1.000000, 99.000000)" fill="#69E3BF">
            <path d="M8.5,16.8910256 C10.6573436,16.8910256 12.7933718,16.0626462 14.4279872,14.4279872 C17.6972179,11.1587564 17.6972179,5.84124359 14.4279872,2.57201282 C11.1587564,-0.697217949 5.84124359,-0.697217949 2.57201282,2.57201282 C-0.697217731,5.84124359 -0.697217731,11.1587564 2.57201282,14.4279872 C4.20662821,16.0626026 6.34274359,16.8910256 8.5,16.8910256 Z M3.33483333,3.33483333 C4.7515,1.91816667 6.62629487,1.19876154 8.5,1.19876154 C10.3747077,1.19876154 12.2485,1.91816667 13.6651667,3.33483333 C16.5207308,6.19039744 16.5207308,10.8106923 13.6651667,13.6651667 C10.8096026,16.5207308 6.18930769,16.5207308 3.33483333,13.6651667 C0.479269231,10.8104744 0.479269231,6.18930769 3.33483333,3.33483333 Z" id="Circle"></path>
            <path d="M5.55769231,12.3141026 C5.71008641,12.3141026 5.8412,12.2485479 5.95017436,12.1395736 L8.78350769,9.06606077 C8.87034718,8.95708641 8.93590179,8.82596846 8.93590179,8.69572231 L8.93590179,4.57692744 C8.93590179,4.27214795 8.69580949,4.03205564 8.39103,4.03205564 C8.08625051,4.03205564 7.84615821,4.27214795 7.84615821,4.57692744 L7.84615821,8.50000436 L5.14403,11.3989403 C4.94821615,11.616889 4.94821615,11.9659556 5.16616487,12.1617608 C5.27428705,12.2707351 5.42667897,12.3141549 5.55779692,12.3141549 L5.55769231,12.3141026 Z" id="Arms"></path>
          </g>
          <path d="M17.5699997,6.18796339 L17.5699997,6.10525879 C17.5699997,6.05047985 17.5699997,5.99570091 17.542074,5.96777526 C17.4593694,4.2900362 17.1016868,1.54025553 16.5249159,0.302903722 C16.4422113,0.110641249 16.2499488,0 16.0297552,0 L1.51231887,0.00107512124 C1.29213075,0.00107512124 1.09986827,0.110633 1.01715818,0.303978843 C0.412450602,1.54133065 0.05477344,4.40043822 0,6.05024063 L0,6.10501957 L0,6.65495371 C0,11.3574405 3.65733697,15.2336513 8.24901204,15.5086183 L8.24901204,23.6201463 L5.08689076,23.6201463 C4.78398704,23.6201463 4.53695662,23.8671877 4.53695662,24.1700804 C4.53695662,24.4729731 4.78399804,24.7200146 5.08689076,24.7200146 L12.482955,24.7200146 C12.7858587,24.7200146 13.0328891,24.4729731 13.0328891,24.1700804 C13.0328891,23.8671877 12.7858477,23.6201463 12.482955,23.6201463 L9.32083367,23.6201463 L9.32083367,15.5086183 C13.9125087,15.2336513 17.5698457,11.3560657 17.5698457,6.65495371 L17.5698457,6.18772966 L17.5699997,6.18796339 Z M15.6731669,1.07302599 C16.0576808,2.1449576 16.3326479,4.09766374 16.4432946,5.55526416 L1.09985727,5.55526416 C1.20941515,4.09771873 1.48437122,2.14512259 1.86891267,1.07302599 L15.6731669,1.07302599 Z" id="Wine-icon" fill="#69E3BF"></path>
          <path d="M9.5,92.5327348 L9.5,32.5327348" id="Line" stroke="#69E3BF" stroke-linecap="square" stroke-dasharray="3,3"></path>
        </g>
        <g id="Second" transform="translate(219.000000, 14.000000)">
          <path d="M17.5699997,6.18796339 L17.5699997,6.10525879 C17.5699997,6.05047985 17.5699997,5.99570091 17.542074,5.96777526 C17.4593694,4.2900362 17.1016868,1.54025553 16.5249159,0.302903722 C16.4422113,0.110641249 16.2499488,0 16.0297552,0 L1.51231887,0.00107512124 C1.29213075,0.00107512124 1.09986827,0.110633 1.01715818,0.303978843 C0.412450602,1.54133065 0.05477344,4.40043822 0,6.05024063 L0,6.10501957 L0,6.65495371 C0,11.3574405 3.65733697,15.2336513 8.24901204,15.5086183 L8.24901204,23.6201463 L5.08689076,23.6201463 C4.78398704,23.6201463 4.53695662,23.8671877 4.53695662,24.1700804 C4.53695662,24.4729731 4.78399804,24.7200146 5.08689076,24.7200146 L12.482955,24.7200146 C12.7858587,24.7200146 13.0328891,24.4729731 13.0328891,24.1700804 C13.0328891,23.8671877 12.7858477,23.6201463 12.482955,23.6201463 L9.32083367,23.6201463 L9.32083367,15.5086183 C13.9125087,15.2336513 17.5698457,11.3560657 17.5698457,6.65495371 L17.5698457,6.18772966 L17.5699997,6.18796339 Z M15.6731669,1.07302599 C16.0576808,2.1449576 16.3326479,4.09766374 16.4432946,5.55526416 L1.09985727,5.55526416 C1.20941515,4.09771873 1.48437122,2.14512259 1.86891267,1.07302599 L15.6731669,1.07302599 Z" id="Wine-icon" fill="#69E3BF"></path>
          <path d="M8.5,93.5068455 L8.5,33.5068455" id="Line-Copy" stroke="#69E3BF" stroke-linecap="square" stroke-dasharray="3,3"></path>
          <g id="Group" transform="translate(0.000000, 100.000000)" fill="#69E3BF">
            <path d="M8.5,16.8910256 C10.6573436,16.8910256 12.7933718,16.0626462 14.4279872,14.4279872 C17.6972179,11.1587564 17.6972179,5.84124359 14.4279872,2.57201282 C11.1587564,-0.697217949 5.84124359,-0.697217949 2.57201282,2.57201282 C-0.697217731,5.84124359 -0.697217731,11.1587564 2.57201282,14.4279872 C4.20662821,16.0626026 6.34274359,16.8910256 8.5,16.8910256 Z M3.33483333,3.33483333 C4.7515,1.91816667 6.62629487,1.19876154 8.5,1.19876154 C10.3747077,1.19876154 12.2485,1.91816667 13.6651667,3.33483333 C16.5207308,6.19039744 16.5207308,10.8106923 13.6651667,13.6651667 C10.8096026,16.5207308 6.18930769,16.5207308 3.33483333,13.6651667 C0.479269231,10.8104744 0.479269231,6.18930769 3.33483333,3.33483333 Z" id="Circle"></path>
            <path d="M5.55769231,12.3141026 C5.71008641,12.3141026 5.8412,12.2485479 5.95017436,12.1395736 L8.78350769,9.06606077 C8.87034718,8.95708641 8.93590179,8.82596846 8.93590179,8.69572231 L8.93590179,4.57692744 C8.93590179,4.27214795 8.69580949,4.03205564 8.39103,4.03205564 C8.08625051,4.03205564 7.84615821,4.27214795 7.84615821,4.57692744 L7.84615821,8.50000436 L5.14403,11.3989403 C4.94821615,11.616889 4.94821615,11.9659556 5.16616487,12.1617608 C5.27428705,12.2707351 5.42667897,12.3141549 5.55779692,12.3141549 L5.55769231,12.3141026 Z" id="Arms"></path>
          </g>
        </g>
        <g id="Fourth" transform="translate(347.000000, 0.000000)">
          <path d="M3.29913465,29.670297 L13.7054254,29.670297 L13.6420711,32.3236294 C13.6288096,32.906239 13.5492518,33.5197059 13.4033903,34.0466932 C13.1573432,34.944522 12.8052266,36 11.7458896,36 L5.25732776,36 C4.19946174,36 3.84880104,34.944522 3.60129803,34.0466932 C3.45543646,33.5135344 3.37440393,32.8521596 3.36114242,32.2726357 L3.29913465,29.670297 Z M14,17.2442987 C14,17.1886686 13.9867385,15.8952017 13.5211748,15.0669205 C13.2073529,14.5106187 12.7196755,14.0624361 12.3646018,13.7703995 C12.1067679,13.5586867 11.9402786,13.2573375 11.8960736,12.909639 L10.7365586,4.24506676 C10.9722937,4.11062387 11.0754287,3.85718652 11.0754287,3.55584122 L11.0754287,3.14476657 C11.0754287,2.78315855 10.8986274,2.53280297 10.581856,2.44011238 L10.5951175,1.97804406 L10.8161201,1.97804406 C10.9325129,1.97804406 11.0665877,1.89305198 11.138783,1.79569323 C11.2095035,1.69988131 11.2109783,1.52062412 11.1815095,1.40317648 C11.1815095,1.40317648 10.9737684,0.641317598 10.9678732,0.624306521 C10.7984381,0.188506468 10.3991669,0 9.95127021,0 L6.97953682,0 C6.53164011,0 6.13236141,0.182350832 5.96440486,0.618135061 C5.95850959,0.633587448 5.7507685,1.40163361 5.7507685,1.40163361 C5.72129972,1.52062412 5.71835398,1.73387972 5.79054927,1.82967978 C5.8612698,1.9254917 5.99681938,1.97803219 6.11468693,1.97803219 L6.41230157,1.97803219 L6.39756529,2.42000371 C6.03954212,2.48336403 5.79495091,2.75379664 5.79495091,3.1447547 L5.79495091,3.55582935 C5.79495091,3.86026038 5.93344623,4.12297075 6.17506907,4.25431208 L5.08774558,12.9220492 C5.04501906,13.2682048 4.87263823,13.5772525 4.61627536,13.790524 C4.26561844,14.0825923 3.78090556,14.5477543 3.47147022,15.1009703 C3.00735494,15.9292911 3,17.167104 3,17.2319835 L3.0147325,17.8022106 L13.9852788,17.8022106 L14,17.2442987 Z M3.27989867,28.8790841 L13.7242842,28.8790841 L13.9659108,18.5933167 L3.03383647,18.5933167 L3.27989867,28.8790841 Z" id="Beer-icon" fill="#69E3BF"></path>
          <path d="M8.5,106.529999 L8.5,46.5262785" id="Line-Copy-3" stroke="#69E3BF" stroke-linecap="square" stroke-dasharray="3,3"></path>
          <g id="Group" transform="translate(0.000000, 115.000000)" fill="#69E3BF">
            <path d="M8.5,16.8910256 C10.6573436,16.8910256 12.7933718,16.0626462 14.4279872,14.4279872 C17.6972179,11.1587564 17.6972179,5.84124359 14.4279872,2.57201282 C11.1587564,-0.697217949 5.84124359,-0.697217949 2.57201282,2.57201282 C-0.697217731,5.84124359 -0.697217731,11.1587564 2.57201282,14.4279872 C4.20662821,16.0626026 6.34274359,16.8910256 8.5,16.8910256 Z M3.33483333,3.33483333 C4.7515,1.91816667 6.62629487,1.19876154 8.5,1.19876154 C10.3747077,1.19876154 12.2485,1.91816667 13.6651667,3.33483333 C16.5207308,6.19039744 16.5207308,10.8106923 13.6651667,13.6651667 C10.8096026,16.5207308 6.18930769,16.5207308 3.33483333,13.6651667 C0.479269231,10.8104744 0.479269231,6.18930769 3.33483333,3.33483333 Z" id="Circle"></path>
            <path d="M5.55769231,12.3141026 C5.71008641,12.3141026 5.8412,12.2485479 5.95017436,12.1395736 L8.78350769,9.06606077 C8.87034718,8.95708641 8.93590179,8.82596846 8.93590179,8.69572231 L8.93590179,4.57692744 C8.93590179,4.27214795 8.69580949,4.03205564 8.39103,4.03205564 C8.08625051,4.03205564 7.84615821,4.27214795 7.84615821,4.57692744 L7.84615821,8.50000436 L5.14403,11.3989403 C4.94821615,11.616889 4.94821615,11.9659556 5.16616487,12.1617608 C5.27428705,12.2707351 5.42667897,12.3141549 5.55779692,12.3141549 L5.55769231,12.3141026 Z" id="Arms"></path>
          </g>
        </g>
      </g>
    </g>
  </g>
</svg>
