
<svg width="253px" height="122px" viewBox="0 0 253 122" version="1.1" xmlns="http://www.w3.org/2000/svg" xmlns:xlink="http://www.w3.org/1999/xlink">
  <!-- Generator: Sketch 49 (51002) - http://www.bohemiancoding.com/sketch -->
  <desc>Created with Sketch.</desc>
  <defs></defs>
  <g id="Page-1" stroke="none" stroke-width="1" fill="none" fill-rule="evenodd">
    <g id="StartupLoader" transform="translate(-60.000000, -280.000000)" fill="#FFFFFF">
      <path d="M75.5273438,401 L73.7255859,401 L75.5126953,390.775391 L63.7353516,390.775391 L61.9482422,401 L60.1611328,401 L63.8671875,379.671875 L65.6542969,379.671875 L63.984375,389.251953 L75.7617188,389.251953 L77.4316406,379.671875 L79.2480469,379.671875 L75.5273438,401 Z M92.0361328,401.292969 C90.0439354,401.253906 88.4643613,400.562995 87.2973633,399.220215 C86.1303653,397.877435 85.4980474,396.083019 85.4003906,393.836914 C85.3613279,393.05566 85.3955073,392.279301 85.5029297,391.507812 L85.7958984,389.486328 C86.2353538,386.507798 87.3095618,384.076181 89.0185547,382.191406 C90.7666103,380.267569 92.9247918,379.330078 95.4931641,379.378906 C96.8017644,379.408203 97.9467724,379.728024 98.9282227,380.338379 C99.9096729,380.948734 100.673825,381.837397 101.220703,383.004395 C101.767581,384.171393 102.065429,385.453118 102.114258,386.849609 C102.143555,387.689457 102.09961,388.509762 101.982422,389.310547 L101.645508,391.566406 C101.303709,393.578135 100.671391,395.33593 99.7485352,396.839844 C98.825679,398.343758 97.7050847,399.469235 96.3867188,400.216309 C95.0683528,400.963383 93.618172,401.322266 92.0361328,401.292969 Z M100.224609,389.149414 C100.302735,388.534177 100.34668,387.909183 100.356445,387.274414 C100.356445,386.083002 100.1709,384.999028 99.7998047,384.022461 C99.4287091,383.045894 98.8696326,382.296389 98.1225586,381.773926 C97.3754845,381.251462 96.4697319,380.975586 95.4052734,380.946289 C93.4521387,380.897461 91.7871163,381.598137 90.4101562,383.04834 C89.0331962,384.498542 88.1250022,386.458972 87.6855469,388.929688 C87.3339826,390.931651 87.1630859,392.411128 87.1728516,393.368164 C87.1728516,395.34083 87.6049761,396.883783 88.4692383,397.99707 C89.3335004,399.110357 90.55175,399.686523 92.1240234,399.725586 C94.204112,399.774414 95.9252862,399.022469 97.2875977,397.469727 C98.6499092,395.916984 99.5214825,393.866224 99.9023438,391.317383 L100.224609,389.149414 Z M113.144531,395.301758 L113.24707,398.451172 L114.521484,395.331055 L121.435547,379.671875 L123.046875,379.671875 L125.039062,395.477539 L125.288086,398.495117 L126.489258,395.18457 L132.641602,379.671875 L134.516602,379.671875 L125.874023,401 L124.160156,401 L122.06543,384.242188 L121.904297,382.279297 L121.083984,384.31543 L113.671875,401 L111.958008,401 L109.995117,379.671875 L111.782227,379.671875 L113.144531,395.301758 Z M149.194336,401 L152.900391,379.671875 L158.452148,379.686523 C160.102547,379.686523 161.533197,380.108882 162.744141,380.953613 C163.955084,381.798344 164.83154,382.965325 165.373535,384.45459 C165.91553,385.943855 166.07422,387.582022 165.849609,389.369141 L165.585938,391.141602 C165.136717,394.100601 163.955088,396.483389 162.041016,398.290039 C160.126944,400.096689 157.778334,401 154.995117,401 L149.194336,401 Z M154.423828,381.209961 L151.245117,399.476562 L155.053711,399.491211 C156.547859,399.491211 157.91015,399.149417 159.140625,398.46582 C160.3711,397.782223 161.389156,396.817877 162.194824,395.572754 C163.000492,394.32763 163.527831,392.921395 163.776855,391.354004 C164.02588,389.786613 164.157715,388.705081 164.172363,388.109375 C164.187012,387.513669 164.155274,386.937503 164.077148,386.380859 C163.852538,384.818352 163.256841,383.57813 162.290039,382.660156 C161.323237,381.742183 160.07325,381.263672 158.540039,381.224609 L154.423828,381.209961 Z M181.479492,392.123047 L175.458984,392.123047 L173.90625,401 L172.104492,401 L175.810547,379.671875 L182.124023,379.686523 C184.25294,379.686523 185.893549,380.240717 187.045898,381.349121 C188.198248,382.457525 188.681642,383.954092 188.496094,385.838867 C188.349609,387.264656 187.814946,388.495112 186.89209,389.530273 C185.969234,390.565435 184.741219,391.31738 183.208008,391.786133 L186.84082,400.794922 L186.826172,401 L184.921875,401 L181.479492,392.123047 Z M175.722656,390.584961 L180.996094,390.599609 C182.500008,390.599609 183.786616,390.157719 184.855957,389.273926 C185.925298,388.390132 186.542968,387.240241 186.708984,385.824219 C186.875001,384.457024 186.572269,383.358403 185.800781,382.52832 C185.029293,381.698238 183.891609,381.263672 182.387695,381.224609 L177.348633,381.209961 L175.722656,390.584961 Z M201.533203,391.273438 L209.853516,379.671875 L212.021484,379.671875 L202.163086,393.060547 L200.786133,401 L198.999023,401 L200.419922,392.870117 L195.292969,379.671875 L197.299805,379.671875 L201.533203,391.273438 Z M238.344727,395.023438 L228.999023,395.023438 L225.820313,401 L223.87207,401 L235.400391,379.671875 L237.114258,379.671875 L241.230469,401 L239.458008,401 L238.344727,395.023438 Z M229.804688,393.485352 L238.051758,393.485352 L235.942383,381.927734 L229.804688,393.485352 Z M254.194336,379.671875 L258.544922,398.451172 L269.443359,379.671875 L271.860352,379.671875 L268.154297,401 L266.367188,401 L267.993164,391.639648 L269.736328,382.411133 L258.881836,401 L257.504883,401 L253.081055,382.264648 L251.572266,391.727539 L249.960938,401 L248.173828,401 L251.879883,379.671875 L254.194336,379.671875 Z M290.390625,401 L288.603516,401 L292.30957,379.671875 L294.09668,379.671875 L290.390625,401 Z M303.764648,395.111328 C303.891602,394.037104 304.189451,393.084965 304.658203,392.254883 C305.126955,391.424801 305.844722,390.599613 306.811523,389.779297 C307.778325,388.95898 308.459471,388.316897 308.85498,387.853027 C309.25049,387.389158 309.572753,386.905764 309.821777,386.402832 C310.070802,385.8999 310.224609,385.345706 310.283203,384.740234 C310.410157,383.636713 310.22217,382.733402 309.719238,382.030273 C309.216306,381.327145 308.442388,380.956055 307.397461,380.916992 C306.274408,380.897461 305.324711,381.217282 304.54834,381.876465 C303.771969,382.535648 303.256837,383.460932 303.00293,384.652344 L301.318359,384.666992 C301.552736,383.04589 302.241205,381.747075 303.383789,380.770508 C304.526373,379.79394 305.908195,379.325195 307.529297,379.364258 C309.023445,379.403321 310.187984,379.911128 311.022949,380.887695 C311.857914,381.864263 312.202149,383.143547 312.055664,384.725586 C311.879882,386.551767 310.874033,388.290031 309.038086,389.94043 L307.382812,391.332031 C306.347651,392.25977 305.678712,393.509758 305.375977,395.082031 L303.764648,395.111328 Z M302.548828,399.974609 C302.578125,399.642576 302.70996,399.361818 302.944336,399.132324 C303.178712,398.902831 303.466795,398.783203 303.808594,398.773438 C304.150392,398.763672 304.42871,398.875975 304.643555,399.110352 C304.8584,399.344728 304.956055,399.632811 304.936523,399.974609 C304.907226,400.296877 304.770509,400.56787 304.526367,400.787598 C304.282225,401.007325 303.999025,401.12207 303.676758,401.131836 C303.334959,401.141602 303.056642,401.036622 302.841797,400.816895 C302.626952,400.597167 302.529297,400.316408 302.548828,399.974609 Z" id="HOW-DRY-AM-I?"></path>
      <g id="np_cocktail_772490_000000" transform="translate(154.000000, 280.000000)" fill-rule="nonzero">
        <path d="M66.102,4.695 L66.26997,3.98797 C66.336377,3.73406 66.16841,3.46844 65.91841,3.41766 L52.91841,0.24186 C52.71529,0.191078 52.51607,0.277016 52.4145,0.44498 L42.3875,15.66398 C42.301562,15.79679 42.15312,15.88273 41.98516,15.88273 L0.75516,15.88273 C0.33328,15.88273 0.11844,16.40226 0.41922,16.68742 L27.18122,43.44942 C27.267157,43.535357 27.31403,43.66817 27.31403,43.78536 L27.31403,65.69136 C27.31403,65.96089 27.09528,66.16011 26.84528,66.16011 L15.30628,66.16011 C15.03675,66.16011 14.83753,66.37886 14.83753,66.62886 L14.83753,67.35152 C14.83753,67.62105 15.05628,67.82027 15.30628,67.82027 L41.05628,67.82027 C41.32581,67.82027 41.52503,67.60152 41.52503,67.35152 L41.52503,66.62886 C41.52503,66.35933 41.30628,66.16011 41.05628,66.16011 L29.48228,66.16011 C29.21275,66.16011 29.01353,65.94136 29.01353,65.69136 L29.01353,43.78536 C29.01353,43.65255 29.064311,43.53145 29.14634,43.44942 L55.90434,16.69142 C56.20512,16.39064 55.990277,15.88673 55.5684,15.88673 L45.1544,15.88673 C44.76768,15.88673 44.54893,15.46485 44.75206,15.14845 L53.16616,2.38245 C53.28335,2.21448 53.48647,2.12854 53.67007,2.17933 L65.51407,5.06993 C65.7836,5.097274 66.03751,4.94884 66.10391,4.69493 L66.102,4.695 Z M41.141,17.547 L34.3207,27.895 C34.21914,28.04734 34.05117,28.12938 33.8832,28.11375 C32.2543,27.94578 30.473,27.55906 28.6098,26.88715 C20.8832,24.03165 14.8368,26.11371 13.2738,26.75434 C13.09021,26.820746 12.88708,26.789496 12.75427,26.65278 L4.48867,18.38718 C4.18789,18.0864 4.402733,17.58249 4.82461,17.58249 L41.141,17.547 Z M36.1332,29.91 C37.2934,29.91 38.352,29.824063 39.2894,29.69125 C39.74253,29.624844 40.01206,30.17953 39.69174,30.49594 L28.48874,41.69894 C28.30515,41.88253 28.00046,41.88253 27.81686,41.69894 L14.81686,28.68294 C14.56295,28.42903 14.66452,27.99544 15.01998,27.89388 C17.30518,27.20638 22.16058,26.26498 28.01998,28.44857 C30.99268,29.53837 33.76608,29.90947 36.13328,29.90947 L36.1332,29.91 Z M52.6452,17.547 L43.3054,26.8868 C43.254618,26.937581 43.20384,26.972737 43.15306,26.98836 C42.46556,27.25789 40.21166,28.06256 37.03976,28.19926 C36.65304,28.214885 36.40304,27.77738 36.61789,27.46098 L43.00069,17.76958 C43.086628,17.63677 43.23507,17.55083 43.40303,17.55083 L52.6452,17.547 Z" id="Shape"></path>
      </g>
    </g>
  </g>
</svg>
