
<svg width="25px" height="25px" viewBox="0 0 25 25" version="1.1" xmlns="http://www.w3.org/2000/svg" xmlns:xlink="http://www.w3.org/1999/xlink">
  <!-- Generator: Sketch 49.1 (51147) - http://www.bohemiancoding.com/sketch -->
  <desc>Created with Sketch.</desc>
  <defs></defs>
  <g id="Symbols" stroke="none" stroke-width="1" fill="none" fill-rule="evenodd">
    <g id="TopBarComponent" transform="translate(-327.000000, -24.000000)" fill="#FFFFFF">
      <path d="M337,24 L328,24 C327.447275,24 327,24.447275 327,25 L327,34 C327,34.552725 327.447275,35 328,35 L337,35 C337.552725,35 338,34.552725 338,34 L338,25 C338,24.447275 337.552725,24 337,24 Z M351,24 L342,24 C341.447275,24 341,24.447275 341,25 L341,34 C341,34.552725 341.447275,35 342,35 L351,35 C351.552725,35 352,34.552725 352,34 L352,25 C352,24.447275 351.552725,24 351,24 Z M337,38 L328,38 C327.447275,38 327,38.447275 327,39 L327,48 C327,48.552725 327.447275,49 328,49 L337,49 C337.552725,49 338,48.552725 338,48 L338,39 C338,38.447275 337.552725,38 337,38 Z M351,38 L342,38 C341.447275,38 341,38.447275 341,39 L341,48 C341,48.552725 341.447275,49 342,49 L351,49 C351.552725,49 352,48.552725 352,48 L352,39 C352,38.447275 351.552725,38 351,38 Z" id="Page-1"></path>
    </g>
  </g>
</svg>
