
<svg width="32px" height="32px" viewBox="0 0 32 32" version="1.1" xmlns="http://www.w3.org/2000/svg" xmlns:xlink="http://www.w3.org/1999/xlink">
  <!-- Generator: Sketch 50.2 (55047) - http://www.bohemiancoding.com/sketch -->
  <desc>Created with Sketch.</desc>
  <defs></defs>
  <g id="Page-1" stroke="none" stroke-width="1" fill="none" fill-rule="evenodd">
    <g id="Menu" transform="translate(-102.000000, -172.000000)" fill="#FFFFFF">
      <g id="ClearMenuItem" transform="translate(102.000000, 172.000000)">
        <g id="Group">
          <path d="M26.8733438,5.52220106 C25.932013,3.87081651 24.1713859,2.75631069 22.1505557,2.75631069 C21.7844864,2.75631069 21.4277886,2.79427539 21.0818353,2.86341917 C19.9407179,1.13744499 17.9977084,-7.28888889e-05 15.7905825,-7.28888889e-05 C13.5834566,-7.28888889e-05 11.6403784,1.13744499 10.4993298,2.86341917 C10.1533765,2.79427192 9.7966786,2.75631069 9.43060931,2.75631069 C7.40984783,2.75631069 5.65045651,3.8707818 4.70782125,5.52220106 C2.28209733,5.61710933 0.343070836,7.63049481 0.343070836,10.106218 C0.343070836,12.5819412 2.28202868,14.5954794 4.70782125,14.6916233 C5.64915207,16.3430078 7.40977917,17.4575137 9.43060931,17.4575137 C9.7966786,17.4575137 10.1533765,17.419549 10.4993298,17.3504052 C11.1215171,18.292685 11.9850616,19.0587472 12.9987893,19.5603963 L11.6793059,24.8955159 C11.0531023,24.8073862 10.4885509,24.7029885 9.98572057,24.5891014 C8.36992151,24.2230256 7.40713595,23.7593481 7.22609231,23.428502 C7.4299123,23.0583653 8.6099056,22.5214519 10.5918083,22.1431932 L11.0289356,20.3751865 C11.0047999,20.3575612 10.9833452,20.3358681 10.9592095,20.3182429 C8.08561365,20.7656765 5.49219952,21.6943851 5.49219952,23.4284812 C5.49219952,23.8108355 5.62227014,24.1538298 5.85023615,24.4616291 C6.90821208,25.8906679 10.1480488,26.5509371 13.0899222,26.7882077 C13.1127191,26.7909185 13.138197,26.7922756 13.1623328,26.7936293 C13.3755379,26.8099009 13.5860724,26.8248153 13.7952646,26.8383727 C13.9132657,26.8451548 14.0339477,26.8519335 14.1559788,26.857355 C14.3450482,26.8668479 14.5314539,26.8749802 14.7138019,26.8804052 C14.7942589,26.883116 14.8760547,26.8858268 14.9578504,26.8871839 C15.2448084,26.8953197 15.525045,26.8993876 15.7905688,26.8993876 C16.0560926,26.8993876 16.3363086,26.8953197 16.6246259,26.888541 C16.7064217,26.8858268 16.7882174,26.8844731 16.8686744,26.8817589 C17.0510397,26.8749802 17.2374212,26.8682016 17.4264975,26.8587121 C17.5471796,26.8532871 17.6678616,26.8465084 17.7872117,26.8397298 C17.9950549,26.8275261 18.206935,26.8126151 18.4201436,26.7949864 C18.4442827,26.7922756 18.468415,26.7909185 18.4925542,26.7895649 C21.4345305,26.5509405 24.6742643,25.8906713 25.7322402,24.4629862 C25.9588571,24.153861 26.0889381,23.8108389 26.0889381,23.4284847 C26.0889381,21.6943886 23.4955926,20.7656453 20.6233012,20.3168927 C20.5991655,20.3345179 20.5777108,20.356211 20.553575,20.3738363 L20.9907024,22.141843 C22.971232,22.52149 24.1525847,23.0583688 24.3564184,23.4271518 C24.1740531,23.7579702 23.2112847,24.2216754 21.5967901,24.5877512 C21.0925867,24.7016383 20.5294084,24.8060395 19.9032048,24.8941657 L18.5837214,19.5590461 C19.597449,19.057397 20.4610279,18.2913695 21.0831809,17.349055 C21.4291342,17.4182022 21.7858321,17.4561635 22.1519014,17.4561635 C24.1726663,17.4561635 25.9320576,16.3416924 26.8746929,14.6902731 C29.299078,14.5953648 31.2380712,12.5819793 31.2380712,10.1062562 C31.2380712,7.63053299 29.2991123,5.61699479 26.8733198,5.52223924 L26.8733438,5.52220106 Z" id="Fill-1"></path>
          <path d="M15.7906855,28.6349206 C14.3558958,28.6349206 12.5470041,28.5318766 10.8482009,28.2580157 L10.3386424,30.3188622 C10.3386424,30.8272796 12.7791272,31.2380952 15.7908915,31.2380952 C18.8026558,31.2380952 21.2431406,30.8272796 21.2431406,30.3188622 L20.733582,28.2580157 C19.0346415,28.5318905 17.2256469,28.6349206 15.7910974,28.6349206 L15.7906855,28.6349206 Z" id="Fill-2"></path>
        </g>
      </g>
    </g>
  </g>
</svg>
