
<svg width="27px" height="25px" viewBox="0 0 27 25" version="1.1" xmlns="http://www.w3.org/2000/svg" xmlns:xlink="http://www.w3.org/1999/xlink">
  <!-- Generator: Sketch 50.2 (55047) - http://www.bohemiancoding.com/sketch -->
  <desc>Created with Sketch.</desc>
  <defs></defs>
  <g id="Page-1" stroke="none" stroke-width="1" fill="none" fill-rule="evenodd">
    <g id="Menu" transform="translate(-102.000000, -108.000000)" fill="#FFFFFF">
      <g id="StatsMenuItem" transform="translate(102.000000, 108.000000)">
        <path d="M0,24.1704146 C0,21.6760724 0.698247178,19.2323197 2.01677753,17.1145881 C3.33530788,14.9968002 5.22021552,13.2917101 7.45879979,12.19167 C8.82125867,14.0602204 10.9983767,15.1623964 13.31144,15.1514354 C15.6246437,15.1404575 17.7917001,14.0195521 19.136818,12.1377079 C21.4017088,13.227883 23.3141034,14.935053 24.6524761,17.0637175 C25.9907644,19.1924664 26.7000008,21.6561177 26.7000008,24.1701338 L0,24.1704146 Z M13.2774888,12.4100479 C11.6317851,12.408949 10.0540961,11.7557293 8.89053815,10.5919746 C7.72681159,9.42824806 7.07358904,7.84951917 7.07358904,6.20389976 C7.07358904,4.55828034 7.72790769,2.98050703 8.89166236,1.8169491 C10.055417,0.653391177 11.6330217,5.68434189e-14 13.278613,5.68434189e-14 C14.9243167,5.68434189e-14 16.5031299,0.653222545 17.6666879,1.8169491 C18.8302458,2.98067566 19.483637,4.55940455 19.483637,6.20502397 C19.483637,7.85064338 18.8293183,9.4295409 17.6655637,10.5930988 C16.5018371,11.7557293 14.9231082,12.4100479 13.2774888,12.4100479 Z" id="Page-1"></path>
      </g>
    </g>
  </g>
</svg>
